<?xml version="1.0" encoding="utf-8"?>
<!-- Generator: Adobe Illustrator 25.0.0, SVG Export Plug-In . SVG Version: 6.00 Build 0)  -->
<svg version="1.1" id="Capa_1" xmlns="http://www.w3.org/2000/svg" xmlns:xlink="http://www.w3.org/1999/xlink" x="0px" y="0px"
	 viewBox="0 0 72.64 88.71" style="enable-background:new 0 0 72.64 88.71;" xml:space="preserve">
<style type="text/css">
	.st0{fill:#9A8177;}
	.st1{fill:#373335;}
</style>
<g>
	<g>
		<path class="st0" d="M11.97,41.75c-0.13-0.27-0.25-0.55-0.38-0.82c-2.35,9.09-0.73,18.53,4.36,26.67c4.41-0.06,8.79-0.6,13.01-1.6
			C19.93,59.81,13.73,51.32,11.97,41.75z"/>
		<path class="st0" d="M61.17,36.16c0,1.4-0.1,2.78-0.28,4.15c0.06,0.2,0.11,0.41,0.16,0.61c4.66-10.62,3.53-22.17-2.55-31.89
			c-3.41,0.04-6.79,0.38-10.1,0.99C56.36,17.04,61.17,26.18,61.17,36.16z"/>
		<path class="st0" d="M11.46,36.17c0-9.98,4.81-19.12,12.77-26.15c-3.3-0.61-6.69-0.94-10.09-0.98c-6.07,9.71-7.2,21.27-2.55,31.89
			c0.05-0.19,0.1-0.38,0.15-0.57C11.56,38.98,11.46,37.58,11.46,36.17z"/>
		<path class="st0" d="M60.65,41.79c-1.77,9.55-7.97,18.02-16.98,24.18c4.22,1,8.61,1.55,13.02,1.6c5.09-8.14,6.71-17.57,4.36-26.67
			C60.92,41.21,60.79,41.5,60.65,41.79z"/>
		<g>
			<path class="st1" d="M43.85,35.63h-1.04v10.32c0,1.41,0.11,2.33,0.32,2.75c0.22,0.42,0.68,0.63,1.39,0.63
				c1.19,0,2.07-0.62,2.62-1.86c0.55-1.24,0.83-3,0.83-5.28c0-2.09-0.32-3.71-0.96-4.85C46.38,36.2,45.32,35.63,43.85,35.63z"/>
			<path class="st1" d="M45.66,34.02c0.41-0.61,0.7-1.43,0.87-2.45c0.17-1.02,0.25-2.11,0.25-3.28c0-2.01-0.19-3.53-0.57-4.55
				c-0.38-1.02-1-1.53-1.86-1.53c-0.65,0-1.06,0.23-1.25,0.69c-0.19,0.46-0.29,1.4-0.29,2.81v9.22h1.07
				C44.65,34.94,45.25,34.63,45.66,34.02z"/>
			<path class="st1" d="M48.65,10.02C45.12,6.89,40.96,4.18,36.32,2c-4.64,2.18-8.79,4.89-12.33,8.02
				c-7.96,7.03-12.77,16.16-12.77,26.15c0,1.41,0.1,2.81,0.29,4.19c0.06,0.47,0.14,0.93,0.22,1.39c1.76,9.57,7.97,18.06,16.99,24.24
				c2.35,1.61,4.89,3.06,7.6,4.34c2.71-1.27,5.25-2.73,7.6-4.34c9.01-6.17,15.21-14.64,16.98-24.18c0.09-0.49,0.17-0.99,0.24-1.49
				c0.18-1.36,0.28-2.75,0.28-4.15C61.42,26.18,56.61,17.05,48.65,10.02z M46.15,50.27c-0.43,0-1.05-0.02-1.87-0.06
				c-0.81-0.04-1.79-0.06-2.91-0.06c-0.79,0-1.56,0.01-2.32,0.02c-0.76,0.01-1.36,0.05-1.81,0.1v-0.82c0.57-0.05,1-0.16,1.29-0.33
				c0.29-0.16,0.48-0.49,0.58-0.98c0.1-0.49,0.15-1.22,0.15-2.2V25.72c0-1.01-0.05-1.75-0.15-2.22c-0.1-0.48-0.3-0.8-0.59-0.98
				c-0.3-0.18-0.72-0.28-1.27-0.31V21.4c0.45,0.03,1.05,0.05,1.81,0.08c0.76,0.03,1.52,0.04,2.27,0.04c0.86,0,1.69-0.01,2.5-0.04
				c0.81-0.03,1.38-0.04,1.72-0.04c2.22,0,3.88,0.6,4.98,1.79c1.1,1.2,1.65,2.73,1.65,4.61c0,0.95-0.19,1.92-0.56,2.9
				c-0.38,0.98-0.96,1.85-1.74,2.61c-0.79,0.76-1.81,1.32-3.06,1.67v0.08c1.68,0.19,3.02,0.65,4,1.39c0.98,0.73,1.69,1.62,2.12,2.65
				c0.43,1.03,0.64,2.11,0.64,3.22c0,2.56-0.66,4.51-1.97,5.87C50.27,49.59,48.46,50.27,46.15,50.27z M25.11,41.16
				c0.21,1.67,0.53,3.16,0.97,4.47c0.44,1.31,1.01,2.34,1.7,3.1c0.7,0.76,1.52,1.14,2.47,1.14c0.59,0,1.19-0.17,1.78-0.51
				c0.6-0.34,1.11-0.84,1.54-1.49c0.7-0.82,1.17-1.83,1.42-3.04c0.25-1.21,0.44-2.82,0.56-4.83h0.62c0,2.58,0.01,4.67,0.03,6.26
				c0.02,1.59,0.04,2.93,0.08,4.02h-0.62c-0.07-1.17-0.19-1.9-0.36-2.2c-0.17-0.3-0.45-0.26-0.85,0.12
				c-0.66,0.71-1.36,1.33-2.11,1.86c-0.74,0.53-1.7,0.8-2.86,0.8c-1.9,0-3.56-0.58-4.98-1.75c-1.42-1.17-2.53-2.86-3.32-5.06
				c-0.79-2.2-1.18-4.85-1.18-7.95c0-3.05,0.41-5.71,1.22-7.99c0.81-2.28,1.93-4.06,3.36-5.34c1.42-1.28,3.06-1.92,4.93-1.92
				c1.18,0,2.15,0.27,2.91,0.8c0.76,0.53,1.44,1.15,2.03,1.86c0.36,0.41,0.63,0.46,0.82,0.14c0.19-0.31,0.32-1.05,0.39-2.22h0.62
				c-0.04,1.06-0.06,2.35-0.08,3.85c-0.02,1.51-0.03,3.51-0.03,6.02h-0.62c-0.09-1.25-0.21-2.32-0.35-3.2
				c-0.14-0.88-0.34-1.67-0.59-2.35c-0.25-0.68-0.61-1.29-1.07-1.84c-0.45-0.68-0.97-1.18-1.56-1.51c-0.59-0.33-1.21-0.49-1.85-0.49
				c-0.97,0-1.79,0.39-2.47,1.16c-0.68,0.78-1.23,1.83-1.65,3.16c-0.42,1.33-0.73,2.83-0.93,4.51c-0.2,1.67-0.3,3.41-0.3,5.2
				C24.81,37.74,24.91,39.49,25.11,41.16z"/>
		</g>
	</g>
	<g>
		<g>
			<path class="st1" d="M8.15,78.64c0.43,0,0.78,0.06,1.06,0.19c0.28,0.13,0.52,0.27,0.73,0.44c0.13,0.1,0.23,0.11,0.3,0.03
				c0.07-0.07,0.11-0.25,0.14-0.53h0.22c-0.01,0.25-0.02,0.56-0.03,0.92c-0.01,0.36-0.01,0.85-0.01,1.45h-0.22
				c-0.03-0.3-0.07-0.57-0.13-0.78c-0.05-0.22-0.13-0.41-0.23-0.57s-0.24-0.32-0.41-0.45c-0.16-0.15-0.33-0.26-0.54-0.33
				c-0.2-0.07-0.41-0.11-0.62-0.11c-0.36,0-0.66,0.1-0.9,0.29s-0.44,0.45-0.59,0.76c-0.15,0.32-0.26,0.67-0.33,1.07
				s-0.1,0.8-0.1,1.21c0,0.42,0.04,0.83,0.11,1.23s0.18,0.75,0.34,1.06s0.35,0.56,0.6,0.75c0.25,0.18,0.55,0.28,0.9,0.28
				c0.2,0,0.4-0.04,0.61-0.11s0.38-0.18,0.53-0.32c0.27-0.19,0.45-0.44,0.54-0.74c0.1-0.3,0.17-0.7,0.21-1.19h0.22
				c0,0.62,0,1.12,0.01,1.51c0.01,0.38,0.02,0.7,0.03,0.96h-0.22c-0.03-0.28-0.07-0.45-0.13-0.53c-0.06-0.07-0.16-0.06-0.31,0.03
				c-0.24,0.17-0.49,0.32-0.76,0.44c-0.27,0.13-0.61,0.19-1.04,0.19c-0.7,0-1.31-0.14-1.83-0.42c-0.52-0.28-0.93-0.68-1.22-1.21
				c-0.29-0.53-0.44-1.16-0.44-1.9c0-0.73,0.15-1.36,0.45-1.91c0.3-0.54,0.71-0.97,1.23-1.27C6.86,78.79,7.46,78.64,8.15,78.64z"/>
			<path class="st1" d="M15.03,78.64c0.69,0,1.3,0.14,1.83,0.42c0.52,0.28,0.93,0.68,1.22,1.2s0.43,1.16,0.43,1.9
				c0,0.73-0.15,1.36-0.44,1.91c-0.29,0.54-0.71,0.97-1.23,1.27c-0.53,0.31-1.13,0.46-1.81,0.46c-0.69,0-1.3-0.14-1.83-0.42
				c-0.53-0.28-0.93-0.68-1.23-1.21c-0.29-0.53-0.44-1.16-0.44-1.9c0-0.73,0.15-1.36,0.45-1.91c0.3-0.54,0.71-0.97,1.24-1.27
				C13.75,78.79,14.35,78.64,15.03,78.64z M14.98,78.81c-0.35,0-0.66,0.15-0.92,0.44c-0.26,0.29-0.47,0.69-0.61,1.21
				c-0.14,0.51-0.21,1.11-0.21,1.78c0,0.69,0.08,1.29,0.24,1.79s0.38,0.9,0.66,1.18s0.58,0.41,0.91,0.41c0.36,0,0.67-0.15,0.93-0.44
				c0.26-0.29,0.46-0.7,0.61-1.21c0.14-0.52,0.21-1.11,0.21-1.78c0-0.69-0.08-1.29-0.24-1.8c-0.16-0.5-0.38-0.9-0.66-1.17
				C15.63,78.95,15.32,78.81,14.98,78.81z"/>
			<path class="st1" d="M25.46,78.77v0.19c-0.2,0.03-0.35,0.08-0.46,0.17s-0.18,0.22-0.21,0.4c-0.03,0.18-0.05,0.43-0.05,0.76v2.53
				c0,0.41-0.03,0.8-0.08,1.15c-0.06,0.35-0.16,0.66-0.32,0.91c-0.17,0.28-0.42,0.5-0.74,0.66c-0.33,0.16-0.74,0.24-1.25,0.24
				c-0.3,0-0.61-0.03-0.93-0.1c-0.31-0.07-0.59-0.2-0.84-0.38c-0.21-0.17-0.37-0.37-0.49-0.59c-0.12-0.22-0.19-0.49-0.23-0.79
				c-0.04-0.3-0.06-0.66-0.06-1.07V79.8c0-0.24-0.02-0.42-0.05-0.53c-0.03-0.11-0.1-0.19-0.2-0.23c-0.1-0.04-0.26-0.07-0.47-0.07
				v-0.19c0.17,0.01,0.4,0.01,0.68,0.02c0.28,0.01,0.57,0.01,0.89,0.01c0.3,0,0.6,0,0.88-0.01c0.29-0.01,0.52-0.01,0.7-0.02v0.19
				c-0.22,0.01-0.39,0.03-0.5,0.07c-0.11,0.04-0.19,0.12-0.23,0.23c-0.04,0.11-0.06,0.29-0.06,0.53v3.73c0,0.43,0.04,0.79,0.13,1.08
				c0.08,0.28,0.22,0.49,0.41,0.63c0.19,0.14,0.45,0.21,0.78,0.21c0.45,0,0.8-0.11,1.05-0.32c0.26-0.21,0.44-0.51,0.54-0.89
				c0.1-0.38,0.16-0.81,0.16-1.31v-2.5c0-0.37-0.02-0.65-0.06-0.86c-0.04-0.2-0.13-0.35-0.26-0.44s-0.34-0.15-0.63-0.17v-0.19
				c0.12,0.01,0.29,0.01,0.49,0.02c0.2,0.01,0.39,0.01,0.57,0.01c0.16,0,0.31,0,0.46-0.01C25.23,78.78,25.36,78.78,25.46,78.77z"/>
			<path class="st1" d="M32.39,78.77v0.19c-0.2,0.03-0.35,0.08-0.46,0.17c-0.1,0.09-0.17,0.22-0.21,0.4
				c-0.04,0.18-0.05,0.43-0.05,0.76v5.38c-0.08-0.01-0.16-0.02-0.25-0.02s-0.18,0.01-0.28,0.02l-4.24-5.21v3.53
				c0,0.37,0.02,0.66,0.05,0.86c0.04,0.2,0.12,0.34,0.26,0.43c0.14,0.09,0.35,0.15,0.64,0.18v0.19c-0.13-0.01-0.29-0.02-0.5-0.02
				c-0.2,0-0.39,0-0.56,0c-0.15,0-0.3,0-0.46,0c-0.16,0-0.28,0.01-0.38,0.02v-0.19c0.21-0.03,0.36-0.09,0.46-0.17
				c0.1-0.08,0.17-0.22,0.2-0.4c0.04-0.18,0.05-0.44,0.05-0.75V79.8c0-0.24-0.02-0.42-0.05-0.53c-0.04-0.11-0.11-0.19-0.21-0.23
				c-0.1-0.04-0.26-0.07-0.46-0.07v-0.19c0.1,0.01,0.22,0.01,0.38,0.02c0.16,0.01,0.31,0.01,0.46,0.01c0.16,0,0.31,0,0.45-0.01
				c0.15-0.01,0.28-0.01,0.39-0.02l3.81,4.54v-2.88c0-0.37-0.02-0.65-0.05-0.86c-0.04-0.2-0.12-0.35-0.26-0.44s-0.35-0.15-0.64-0.17
				v-0.19c0.13,0.01,0.29,0.01,0.5,0.02c0.2,0.01,0.39,0.01,0.56,0.01c0.16,0,0.31,0,0.46-0.01C32.17,78.78,32.29,78.78,32.39,78.77
				z"/>
			<path class="st1" d="M35.46,78.65c0.39,0,0.69,0.04,0.9,0.12s0.4,0.17,0.54,0.26c0.08,0.04,0.14,0.08,0.19,0.1
				s0.1,0.03,0.14,0.03c0.1,0,0.18-0.14,0.21-0.43h0.22c-0.01,0.13-0.01,0.28-0.02,0.45c-0.01,0.17-0.02,0.4-0.02,0.68
				c0,0.28,0,0.66,0,1.12h-0.22c-0.02-0.34-0.1-0.68-0.23-1c-0.13-0.32-0.32-0.59-0.55-0.8s-0.53-0.32-0.88-0.32
				c-0.3,0-0.55,0.09-0.75,0.26c-0.2,0.17-0.3,0.41-0.3,0.72c0,0.25,0.06,0.47,0.19,0.65c0.13,0.18,0.31,0.36,0.56,0.54
				c0.25,0.18,0.56,0.39,0.94,0.65c0.3,0.2,0.58,0.4,0.82,0.6c0.24,0.2,0.44,0.43,0.58,0.68s0.22,0.55,0.22,0.9
				c0,0.43-0.11,0.79-0.34,1.07c-0.22,0.28-0.52,0.49-0.9,0.63c-0.38,0.14-0.78,0.21-1.22,0.21c-0.41,0-0.74-0.04-0.98-0.12
				s-0.45-0.16-0.62-0.24c-0.14-0.09-0.25-0.14-0.33-0.14c-0.1,0-0.18,0.14-0.21,0.43h-0.22c0.01-0.16,0.02-0.34,0.02-0.55
				c0-0.21,0.01-0.49,0.01-0.83c0-0.34,0-0.77,0-1.29h0.22c0.03,0.43,0.1,0.84,0.22,1.22s0.3,0.68,0.55,0.91
				c0.25,0.23,0.58,0.35,1,0.35c0.34,0,0.63-0.09,0.86-0.27c0.23-0.18,0.34-0.44,0.34-0.79c0-0.4-0.13-0.73-0.4-1
				c-0.27-0.27-0.62-0.54-1.04-0.81c-0.31-0.2-0.59-0.4-0.86-0.61s-0.48-0.44-0.64-0.7c-0.16-0.26-0.24-0.57-0.24-0.92
				c0-0.41,0.11-0.75,0.32-1.02c0.21-0.26,0.49-0.46,0.83-0.58C34.71,78.71,35.07,78.65,35.46,78.65z"/>
			<path class="st1" d="M43.97,78.77c-0.03,0.29-0.04,0.58-0.05,0.85s-0.01,0.49-0.01,0.64c0,0.13,0,0.25,0.01,0.37
				c0.01,0.12,0.01,0.21,0.02,0.29h-0.22c-0.07-0.49-0.17-0.87-0.32-1.15s-0.33-0.48-0.55-0.6C42.61,79.05,42.35,79,42.06,79h-0.33
				c-0.19,0-0.33,0.02-0.42,0.05c-0.09,0.03-0.16,0.09-0.19,0.19s-0.05,0.24-0.05,0.44v5.09c0,0.19,0.02,0.34,0.05,0.43
				s0.1,0.16,0.19,0.19c0.09,0.03,0.24,0.05,0.42,0.05h0.44c0.27,0,0.52-0.06,0.75-0.19s0.43-0.35,0.6-0.66
				c0.17-0.31,0.29-0.73,0.38-1.26h0.22c-0.02,0.21-0.03,0.49-0.03,0.83c0,0.16,0,0.37,0.01,0.65c0.01,0.28,0.03,0.57,0.06,0.87
				c-0.33-0.01-0.7-0.02-1.12-0.02c-0.42,0-0.79,0-1.11,0c-0.22,0-0.52,0-0.89,0c-0.37,0-0.76,0-1.18,0c-0.41,0-0.8,0.01-1.16,0.02
				v-0.19c0.21-0.01,0.36-0.04,0.47-0.08s0.17-0.12,0.2-0.23c0.03-0.12,0.05-0.29,0.05-0.52V79.8c0-0.24-0.02-0.42-0.05-0.53
				c-0.03-0.11-0.1-0.19-0.2-0.23c-0.1-0.04-0.26-0.07-0.47-0.07v-0.19c0.36,0.01,0.75,0.01,1.16,0.02c0.41,0.01,0.8,0.01,1.18,0.01
				c0.37,0,0.67,0,0.89,0c0.3,0,0.64,0,1.02,0C43.33,78.79,43.67,78.78,43.97,78.77z M42.47,82.1v0.19h-1.69V82.1H42.47z
				 M42.75,80.81c-0.03,0.37-0.04,0.65-0.03,0.85s0,0.37,0,0.53c0,0.16,0,0.34,0.01,0.54c0.01,0.19,0.02,0.48,0.05,0.85h-0.22
				c-0.03-0.23-0.1-0.44-0.19-0.64c-0.09-0.2-0.22-0.35-0.39-0.47c-0.17-0.12-0.38-0.17-0.64-0.17V82.1c0.26,0,0.47-0.07,0.63-0.21
				c0.16-0.14,0.28-0.31,0.38-0.51s0.15-0.39,0.18-0.56H42.75z"/>
			<path class="st1" d="M48.05,78.77v0.19c-0.22,0.01-0.39,0.03-0.5,0.07c-0.11,0.04-0.19,0.12-0.23,0.23
				c-0.04,0.11-0.06,0.29-0.06,0.53v4.96c0,0.19,0.02,0.34,0.05,0.43c0.03,0.09,0.09,0.16,0.17,0.19c0.08,0.03,0.21,0.05,0.37,0.05
				h0.44c0.29,0,0.55-0.1,0.8-0.29c0.25-0.19,0.46-0.46,0.64-0.79c0.18-0.34,0.3-0.72,0.36-1.14h0.22
				c-0.02,0.22-0.03,0.51-0.03,0.86c0,0.16,0,0.38,0.01,0.68c0.01,0.29,0.03,0.6,0.06,0.91c-0.33-0.01-0.7-0.02-1.12-0.02
				c-0.42,0-0.78,0-1.11,0c-0.22,0-0.52,0-0.89,0s-0.76,0-1.18,0c-0.41,0-0.8,0.01-1.16,0.02v-0.19c0.21-0.01,0.36-0.04,0.47-0.08
				s0.17-0.12,0.2-0.23c0.03-0.12,0.05-0.29,0.05-0.52V79.8c0-0.24-0.02-0.42-0.05-0.53c-0.03-0.11-0.1-0.19-0.2-0.23
				c-0.1-0.04-0.26-0.07-0.47-0.07v-0.19c0.18,0.01,0.4,0.01,0.68,0.02c0.28,0.01,0.58,0.01,0.9,0.01c0.29,0,0.58,0,0.87-0.01
				C47.64,78.78,47.87,78.78,48.05,78.77z"/>
			<path class="st1" d="M53.95,78.77v0.19c-0.2,0.01-0.35,0.03-0.46,0.07c-0.1,0.04-0.17,0.12-0.21,0.23
				c-0.04,0.11-0.05,0.29-0.05,0.53v4.82c0,0.23,0.02,0.41,0.05,0.52c0.04,0.12,0.11,0.19,0.21,0.23s0.26,0.07,0.46,0.08v0.19
				c-0.17-0.01-0.4-0.02-0.67-0.02c-0.27,0-0.55,0-0.83,0c-0.32,0-0.63,0-0.9,0c-0.28,0-0.51,0.01-0.68,0.02v-0.19
				c0.21-0.01,0.36-0.04,0.46-0.08s0.17-0.12,0.2-0.23c0.04-0.12,0.05-0.29,0.05-0.52V79.8c0-0.24-0.02-0.42-0.05-0.53
				c-0.04-0.11-0.1-0.19-0.2-0.23c-0.1-0.04-0.25-0.07-0.46-0.07v-0.19c0.17,0.01,0.4,0.01,0.68,0.02c0.28,0.01,0.58,0.01,0.9,0.01
				c0.28,0,0.55,0,0.83-0.01C53.56,78.78,53.78,78.78,53.95,78.77z"/>
			<path class="st1" d="M61.04,78.77v0.19c-0.2,0.03-0.35,0.08-0.46,0.17s-0.17,0.22-0.21,0.4s-0.05,0.43-0.05,0.76v5.38
				c-0.08-0.01-0.16-0.02-0.25-0.02s-0.18,0.01-0.28,0.02l-4.24-5.21v3.53c0,0.37,0.02,0.66,0.05,0.86c0.04,0.2,0.12,0.34,0.26,0.43
				c0.14,0.09,0.35,0.15,0.64,0.18v0.19c-0.13-0.01-0.29-0.02-0.5-0.02c-0.2,0-0.39,0-0.56,0c-0.15,0-0.3,0-0.46,0
				c-0.16,0-0.28,0.01-0.38,0.02v-0.19c0.21-0.03,0.36-0.09,0.46-0.17c0.1-0.08,0.17-0.22,0.2-0.4c0.04-0.18,0.05-0.44,0.05-0.75
				V79.8c0-0.24-0.02-0.42-0.05-0.53c-0.04-0.11-0.11-0.19-0.21-0.23c-0.1-0.04-0.26-0.07-0.46-0.07v-0.19
				c0.1,0.01,0.22,0.01,0.38,0.02c0.16,0.01,0.31,0.01,0.46,0.01c0.16,0,0.31,0,0.45-0.01c0.15-0.01,0.28-0.01,0.39-0.02l3.81,4.54
				v-2.88c0-0.37-0.02-0.65-0.05-0.86c-0.04-0.2-0.12-0.35-0.26-0.44c-0.14-0.09-0.35-0.15-0.64-0.17v-0.19
				c0.13,0.01,0.29,0.01,0.5,0.02c0.2,0.01,0.39,0.01,0.56,0.01c0.16,0,0.31,0,0.46-0.01C60.82,78.78,60.95,78.78,61.04,78.77z"/>
			<path class="st1" d="M65.29,78.64c0.45,0,0.81,0.06,1.09,0.18c0.28,0.12,0.53,0.27,0.76,0.45c0.07,0.06,0.14,0.09,0.19,0.09
				c0.12,0,0.21-0.19,0.24-0.58h0.22c-0.01,0.25-0.02,0.56-0.03,0.92c-0.01,0.36-0.01,0.85-0.01,1.45h-0.22
				c-0.05-0.41-0.12-0.76-0.22-1.05c-0.1-0.29-0.28-0.55-0.55-0.75c-0.16-0.14-0.34-0.24-0.56-0.32c-0.22-0.08-0.44-0.12-0.66-0.12
				c-0.36,0-0.66,0.1-0.91,0.29c-0.25,0.19-0.46,0.45-0.62,0.76c-0.16,0.32-0.28,0.67-0.35,1.07c-0.08,0.4-0.11,0.8-0.11,1.21
				c0,1.17,0.16,2.02,0.47,2.56s0.76,0.81,1.33,0.81c0.14,0,0.27-0.02,0.38-0.05c0.11-0.04,0.2-0.08,0.27-0.12
				c0.09-0.06,0.15-0.13,0.19-0.2c0.03-0.08,0.05-0.17,0.05-0.29v-0.96c0-0.3-0.03-0.53-0.08-0.68c-0.05-0.15-0.15-0.25-0.29-0.3
				s-0.34-0.09-0.62-0.09V82.7c0.14,0.01,0.3,0.01,0.5,0.01c0.2,0,0.4,0.01,0.62,0.01s0.41,0,0.58,0c0.29,0,0.54,0,0.78-0.01
				c0.23-0.01,0.42-0.01,0.57-0.02v0.19c-0.18,0.01-0.3,0.07-0.35,0.16c-0.05,0.09-0.08,0.32-0.08,0.68v1.92h-0.19
				c-0.01-0.11-0.03-0.23-0.08-0.36c-0.04-0.13-0.12-0.2-0.21-0.2c-0.05,0-0.12,0.01-0.19,0.03c-0.07,0.02-0.2,0.08-0.36,0.17
				c-0.24,0.14-0.5,0.25-0.76,0.34s-0.55,0.14-0.84,0.14c-1.15,0-2.03-0.31-2.62-0.92c-0.59-0.62-0.89-1.47-0.89-2.58
				c0-0.74,0.15-1.38,0.46-1.92c0.3-0.54,0.73-0.97,1.26-1.27S64.6,78.64,65.29,78.64z"/>
		</g>
	</g>
</g>
</svg>
